<?xml version="1.0" ?><svg style="enable-background:new 0 0 64 64;" version="1.1" viewBox="0 0 64 64" xml:space="preserve" xmlns="http://www.w3.org/2000/svg" xmlns:xlink="http://www.w3.org/1999/xlink"><g id="basketball"><path d="M59.5,22.7c-2.9-8.5-9.7-15.3-18.1-18.1c-6-2-12.7-2-18.6,0C14.2,7.4,7.4,14.2,4.5,22.7c-1,3-1.5,6.1-1.5,9.3   s0.5,6.3,1.5,9.3c2.9,8.5,9.6,15.3,18.1,18.1c3,1,6.1,1.5,9.3,1.5s6.3-0.5,9.3-1.5c8.5-2.9,15.3-9.6,18.1-18.1c1-3,1.5-6.1,1.5-9.3   S60.5,25.7,59.5,22.7z M58.5,37c-15-0.7-30.3-1.5-42-4.1c0-2,0.2-4,0.6-6.1c0.6,0.1,1.3,0.2,1.9,0.2c2.1,0,4.2-0.7,6.4-2.1   c11.8-7.5,22.2-8.2,31.8-2.1c0.1,0.2,0.1,0.4,0.2,0.5c1,2.8,1.4,5.7,1.4,8.7C59,33.7,58.8,35.3,58.5,37z M56,19.7   c-9.7-5-20-3.9-31.6,3.4c-2.4,1.6-4.7,2.1-6.8,1.6c1.8-7,6.1-14,14.6-19.8c2.9,0,5.7,0.5,8.4,1.4C47.3,8.7,52.9,13.5,56,19.7z    M23.3,6.4c1.7-0.6,3.5-1,5.3-1.2c-7.3,5.7-11.1,12.3-12.8,18.8c-3.9-2.1-5.8-7.3-5.8-7.4c0,0,0-0.1-0.1-0.1   C13.1,11.9,17.8,8.3,23.3,6.4z M8.6,18.6c0.9,2,3.1,5.8,6.7,7.5c-0.4,2.1-0.6,4.2-0.7,6.3c-3.4-0.9-6.5-1.9-9.1-3.2   c-0.1,0-0.2-0.1-0.3-0.1c0.2-2,0.6-3.9,1.3-5.7C7,21.7,7.7,20.1,8.6,18.6z M5,31.1c2.8,1.3,6,2.4,9.5,3.3c0,1.5,0.1,3,0.3,4.5   c-3.9-0.1-6.9,1.9-8,2.9c-0.1-0.4-0.3-0.7-0.4-1.1C5.5,37.9,5,35,5,32C5,31.7,5,31.4,5,31.1z M7.7,43.7C7.7,43.7,7.7,43.7,7.7,43.7   c0.2-0.2,3.3-3.1,7.5-2.8c1.1,6.7,3.4,12.2,4.8,15.2C14.6,53.5,10.2,49.1,7.7,43.7z M40.7,57.6c-5.5,1.9-11.8,1.9-17.4,0   c-0.2-0.1-0.4-0.1-0.5-0.2c-0.6-1-4-7.5-5.5-16c1.3,0.4,2.7,1.2,4.1,2.4c0.8,0.7,1.5,1.3,2.2,1.9c5.7,5,10,8.8,20.1,8.8   c1.1,0,2.3-0.1,3.5-0.1C45.2,55.7,43,56.8,40.7,57.6z M50.1,52c-0.1,0-0.1,0-0.2,0c-14,1.8-18.4-2.1-25-7.9   c-0.7-0.6-1.4-1.3-2.2-1.9c-2-1.7-3.9-2.6-5.7-3c-0.2-1.4-0.3-2.8-0.3-4.3c11.7,2.6,26.8,3.4,41.5,4.1c-0.2,0.6-0.3,1.2-0.5,1.7   C56.1,45.1,53.5,49,50.1,52z"/></g><g id="field"/><g id="basket"/><g id="trophy"/><g id="league_1_"/><g id="player"/><g id="uniform_1_"/><g id="scoreboard"/><g id="medal"/><g id="shoe_1_"/><g id="ticket_1_"/><g id="event_1_"/><g id="time"/><g id="strategy_1_"/><g id="supporter"/><g id="whistle"/><g id="podium"/><g id="bag"/><g id="bottle"/><g id="badge"/></svg>