<svg xmlns="http://www.w3.org/2000/svg" width="128" height="128" viewBox="0 0 33.867 33.867"><path fill="#00a1ff" d="M27.498 7.3c-.866 0-1.595.174-1.95 1.41-.476 1.65-2.546 5.275-3.72 7.091-.835 1.293-1.943.394-2.01-.16-.167-1.397 0-6.735 0-6.735 0-1.05-.65-1.592-1.368-1.592h-5.37c-.88 0-1.323 1.069-.06 1.85 1.093.676 1.388.717 1.388 1.67v6.037c0 .516-.778 1.096-1.425.433-.97-.991-4.304-8.006-4.304-8.006S7.8 7.314 5.453 7.314H1.778c-.407 0-.955.527-.619 1.182 0 0 4 9.66 7.66 13.628s6.706 4.443 6.706 4.443h3.232s1.132.027 1.132-1.132v-3.311c-.05-.79 1.014-1.387 1.94-.384l3.409 3.699c.841.884 1.82 1.128 2.76 1.128h4.041c.623 0 1.242-.797.235-1.805l-4.901-5.6s-.783-.699-.112-1.76c.67-1.063 4.058-7.657 4.226-8.104.452-.95.139-1.984-.985-1.984L27.498 7.3z" paint-order="fill markers stroke"/></svg>